<svg xmlns="http://www.w3.org/2000/svg" xmlns:xlink="http://www.w3.org/1999/xlink" viewBox="0 0 154.21 371.81"><defs><style>.cls-1{isolation:isolate;}.cls-2{fill:#f2ab88;}.cls-3{fill:#5c3f31;}.cls-4{fill:#371909;}.cls-5{fill:#28567a;}.cls-19,.cls-6{opacity:0.35;}.cls-14,.cls-16,.cls-19,.cls-20,.cls-33,.cls-34,.cls-37,.cls-42,.cls-43,.cls-6,.cls-8{mix-blend-mode:multiply;}.cls-7{fill:#394962;}.cls-9{fill:#bcadb4;}.cls-10{fill:#17899c;}.cls-11{fill:#1d5069;}.cls-11,.cls-37{opacity:0.65;}.cls-12{fill:#17909c;}.cls-13{fill:#2e96a6;}.cls-14,.cls-20,.cls-34,.cls-43{opacity:0.5;}.cls-15{fill:#52acb5;}.cls-16{fill:#dcb890;opacity:0.55;}.cls-17{fill:#db7a5b;}.cls-18,.cls-19,.cls-20{fill:#995235;}.cls-21{fill:#ce7959;}.cls-22{fill:#884627;}.cls-23{fill:url(#radial-gradient);}.cls-24{fill:url(#radial-gradient-2);}.cls-25{fill:#9f1818;}.cls-26{fill:#e34848;}.cls-27{fill:#fdfaee;}.cls-28{fill:#e78660;}.cls-29{fill:#633837;}.cls-30{fill:#321413;}.cls-31{fill:#d8d8d7;}.cls-32,.cls-33,.cls-34{fill:#e4e4e3;}.cls-35{fill:#fff;}.cls-36{fill:#00475e;}.cls-37{fill:#d69c7c;}.cls-38{fill:#ffd7c0;}.cls-39{fill:#d98967;}.cls-40{fill:#3e2d2c;}.cls-41{fill:#594b4a;}.cls-42{fill:#434036;opacity:0.32;}.cls-43{fill:#8a949a;}</style><radialGradient id="radial-gradient" cx="391.69" cy="83.86" r="3.95" gradientTransform="translate(-381.97 -36.61) scale(1.17 1)" gradientUnits="userSpaceOnUse"><stop offset="0" stop-color="#f29788"/><stop offset="0.61" stop-color="#f2a388"/><stop offset="0.92" stop-color="#f2ab88"/></radialGradient><radialGradient id="radial-gradient-2" cx="139.99" cy="83.86" r="3.95" gradientTransform="matrix(-1.17, 0, 0, 1, 549, 0)" xlink:href="#radial-gradient"/></defs><title>homem</title><g class="cls-1"><g id="Layer_1" data-name="Layer 1"><path class="cls-2" d="M410.4,383.17l11.26,1s7.8,10.11,9.74,11.57,14.49,4.38,14,6.69-3.53,5-8.28,4.51-8.77-.85-10.6-1.46a117.58,117.58,0,0,0-18-3.93,2.47,2.47,0,0,1-2-1.81C408.27,394.94,408.75,390,410.4,383.17Z" transform="translate(-331.99 -36.61)"/><path class="cls-3" d="M408.57,388.75c4.07,1.59,6.82,2.76,10.2,2.57a5.26,5.26,0,0,0,.6-.08c3.09,2.86,6,4.8,5,3-.4-.74-1.53-2.42-2.18-3.81a23.16,23.16,0,0,0,3.44-1.79,49.34,49.34,0,0,0,7.77,7.08c2.19,1.64,16.32,4.93,15.77,7.54s-4,5.62-9.33,5.07a173.63,173.63,0,0,1-18.09-3.19,7.72,7.72,0,0,0-5.25-2.12,10,10,0,0,0-1.93.19q-2.67-.53-5.71-1a2.76,2.76,0,0,1-2.38-2.56C406.33,397.12,407.69,392.72,408.57,388.75Z" transform="translate(-331.99 -36.61)"/><path class="cls-4" d="M406.59,397.78c1.37.37,3.07.55,5.93,1.19,8,1.81,8.23,4.1,11.21,5a52.37,52.37,0,0,0,16.89,2.61c2.95,0,6.37-.71,8.58-3.51a1.21,1.21,0,0,1,0,.19c-.55,2.6-4,5.62-9.33,5.07a173.63,173.63,0,0,1-18.09-3.19,7.72,7.72,0,0,0-5.25-2.12,10,10,0,0,0-1.93.19q-2.67-.53-5.71-1a2.76,2.76,0,0,1-2.38-2.56C406.49,399.63,406.59,397.78,406.59,397.78Z" transform="translate(-331.99 -36.61)"/><path class="cls-2" d="M388,383.17l-11.27,1S369,394.26,367,395.72s-14.49,4.38-14,6.69,3.53,5,8.28,4.51,8.76-.85,10.59-1.46a117.82,117.82,0,0,1,18-3.93,2.47,2.47,0,0,0,2-1.81C390.15,394.94,389.67,390,388,383.17Z" transform="translate(-331.99 -36.61)"/><path class="cls-3" d="M389.84,388.75c-4.07,1.59-6.81,2.76-10.2,2.57a5.57,5.57,0,0,1-.6-.08c-3.09,2.86-6,4.8-5,3,.39-.74,1.53-2.42,2.18-3.81a23.16,23.16,0,0,1-3.44-1.79,49.79,49.79,0,0,1-7.77,7.08c-2.2,1.64-16.32,4.93-15.78,7.54s4,5.62,9.33,5.07a173.15,173.15,0,0,0,18.09-3.19A7.76,7.76,0,0,1,381.9,403a9.76,9.76,0,0,1,1.92.19c1.78-.35,3.69-.67,5.71-1a2.78,2.78,0,0,0,2.39-2.56C392.09,397.12,390.72,392.72,389.84,388.75Z" transform="translate(-331.99 -36.61)"/><path class="cls-4" d="M391.83,397.78c-1.38.37-3.07.55-5.93,1.19-8,1.81-8.24,4.1-11.21,5a52.42,52.42,0,0,1-16.9,2.61c-3,0-6.36-.71-8.57-3.51a.61.61,0,0,0,0,.19c.55,2.6,4,5.62,9.33,5.07a173.15,173.15,0,0,0,18.09-3.19A7.76,7.76,0,0,1,381.9,403a9.76,9.76,0,0,1,1.92.19c1.78-.35,3.69-.67,5.71-1a2.78,2.78,0,0,0,2.39-2.56C391.92,399.63,391.83,397.78,391.83,397.78Z" transform="translate(-331.99 -36.61)"/><path class="cls-5" d="M426.9,302.27c5.21-60.35-.86-86.86-.86-86.86l-29.92-18.86-30.6,18.86s-2.36,27.42,2.85,87.78c0,0,2,59.77,2.09,84.48,0,0,13.81,3.7,21.46-.33,0,0-.67-65.25-.87-75.73-.16-8.37,1.75-46.26,3.5-63.87a1.24,1.24,0,0,1,2.46,0c1.76,17.61,6.3,55.5,6.14,63.87-.21,10.48,4.13,75.73,4.13,75.73,7.65,4,21.08.33,21.08.33C428.41,363,426.9,302.27,426.9,302.27Z" transform="translate(-331.99 -36.61)"/><g class="cls-6"><path class="cls-5" d="M365.21,249.82c4.71.43,16.28,1,22.31-1.06,4.11-1.41,8.56-4.93,13.12-1.94,7.94,5.21,18.72,3.58,28.28,1.78-.48-22.73-2.88-33.19-2.88-33.19l-29.92-18.86-30.6,18.86S364.58,226.42,365.21,249.82Z" transform="translate(-331.99 -36.61)"/></g><path class="cls-2" d="M382.5,130c1.72.86,3.45,1.69,5.22,2.42l.06,0c2.14.71,4.3,1.38,6.48,1.91,4.07-.85,8.11-1.73,12.26-2.34l0,0c1.44-.85,2.88-1.7,4.26-2.64.14-.14.28-.27.39-.39,2-2.13,3.77-4.49,5.74-6.66s4-4.1,5.86-6.27l.13-.26c.11-.21.21-.42.32-.64-4-.3-7.72-.72-10.24-1.75C405.26,110.2,405.26,95,405.26,95H388s0,15.22-7.76,18.38c-2.62,1.07-6.55,1.48-10.72,1.79,1.9,2.86,3.67,5.82,5.59,8.93.45.73,1.36,1.86,1.9,2.54.21.19.42.38.65.56a2.23,2.23,0,0,1,.24.19l.62.4C379.85,128.54,381.15,129.31,382.5,130Z" transform="translate(-331.99 -36.61)"/><path class="cls-7" d="M413.93,121.58c-1.2-1.11-2.58-2.7-4.23-3.19-.91-.28-1.85-.53-2.79-.77a46.3,46.3,0,0,1-9.5,1.14,48.36,48.36,0,0,1-11.47-1.59c-1,.86-1.92,1.77-2.92,2.59a48.54,48.54,0,0,0-4.47,3.67c6.28,17.2,19.88,48.34,20.35,50l15.59-51.35C414.3,121.91,414.11,121.75,413.93,121.58Z" transform="translate(-331.99 -36.61)"/><g class="cls-8"><polygon class="cls-9" points="84.33 80.76 77.13 76.18 64.84 82.24 52.28 76.18 45.09 80.76 58.22 97.73 64.71 88.02 71.19 97.73 84.33 80.76"/></g><path class="cls-10" d="M430.46,184.15c3-28.32,13.33-60.27,11.87-63.32-2.62-5.48-17.52-4.71-26.31-6.74-1.77.92-3.46,1.69-5.09,2.35h0l-12.82,42.2c-.43-1.49-16-37-16.8-43h0c-1.05-.47-2.13-1-3.25-1.56-8.79,2-25,.39-27.62,5.87-1.57,3.27,9.77,32.87,12.76,63,2.54,25.52-3.23,57.93-3.76,60.57,0,0,14.81,3.51,25.74-1.17,4.71-2,7.76-8.2,11.51-31.31,0,0,2.69,28.09,11.61,31.75,7.53,3.08,25.75.73,25.75.73C433.48,240.66,427.59,211.79,430.46,184.15Z" transform="translate(-331.99 -36.61)"/><path class="cls-11" d="M398.11,166.52s-.54,34.77-1.46,44.79C396.65,211.31,396.06,177,398.11,166.52Z" transform="translate(-331.99 -36.61)"/><g class="cls-6"><path class="cls-12" d="M417.64,128.29l4.91-1.16c0-1.11-.06-9.76-.1-12.1a57,57,0,0,1-7.69-.94c-1.66.86-3.22,3.27-4.75,3.89l-11.35,43.15c-.4-1.4-15.63-38.23-16.4-43.88h0c-1-.45-1.79-2-2.84-2.59-2.57.59-7.14.31-10.47.54.09,1.62,1.14,10.88,1.25,13l5.1,1.2-3.55,3.91c1.51,3.12,26.47,37.54,26.47,37.54.65-1,20.92-32.39,23.36-38.71Z" transform="translate(-331.99 -36.61)"/></g><polygon class="cls-13" points="78.53 76.18 89.5 78.05 89.5 89.41 82.5 90.87 87.76 95.99 66.12 132.37 66.12 122.03 78.53 76.18"/><polygon class="cls-13" points="49 76.18 38.3 79.2 39.51 90.5 46.62 91.21 41.93 96.86 66.23 132.19 66.23 121.62 49 76.18"/><g class="cls-14"><path class="cls-15" d="M362,144c-.08.19-1.64,1.07-1.71,1.26h0c-.87,2.36-1.68,4.74-2.49,7.11,1.85,7.89,3.45,15.84,4.56,23.87A157.39,157.39,0,0,1,363.8,201h0a289,289,0,0,1-4.36,42.54s1.89.44,4.81.8c1.61-9,6.77-29.8,7.9-50.23C372,187.51,364.44,151.39,362,144Z" transform="translate(-331.99 -36.61)"/></g><g class="cls-14"><path class="cls-15" d="M360.54,144.67c.08-.23.11-.3,0,0Z" transform="translate(-331.99 -36.61)"/></g><g class="cls-14"><path class="cls-15" d="M429.83,193.16c0-.22,0-.43,0-.65.06-1.25.13-2.5.22-3.76,0-.23,0-.47.05-.71.1-1.3.21-2.59.34-3.89s.27-2.34.41-3.51c1.85-14.62,5.75-30,8.78-41.69-3.39,2.49-13.5,21.68-15.07,29.69-5.74,29.3-.5,62.32,4.87,75.32,2.75-.23,4.6-.46,4.6-.46A232.26,232.26,0,0,1,429.68,201C429.67,198.39,429.72,195.78,429.83,193.16Z" transform="translate(-331.99 -36.61)"/></g><path class="cls-16" d="M395.89,111.61c7.76,0,11.27-2.53,12.28-3.13-2.91-5.6-2.91-13.5-2.91-13.5H388s0,8.49-3.23,14.1C385.32,109.3,391.11,111.61,395.89,111.61Z" transform="translate(-331.99 -36.61)"/><polygon class="cls-7" points="52.28 72.99 45.09 77.56 58.22 94.53 64.84 82.24 52.28 72.99"/><polygon class="cls-7" points="77.13 72.99 84.33 77.56 71.19 94.53 64.57 82.24 77.13 72.99"/><path class="cls-2" d="M371.52,77.93c2.83-3.84,9.24,2.4,9.24,2.4s4,4.66-.66,10.28c-2.32,2.81-5,.69-6.78-2.66S369.5,80.66,371.52,77.93Z" transform="translate(-331.99 -36.61)"/><path class="cls-17" d="M375.59,88.34a2.66,2.66,0,0,0,2.35,1,1,1,0,0,0,.66-1c-.27-.83-2.92-2.31-2.26-4.64S374,79.1,373.1,80.39C372.38,81.39,373.25,86,375.59,88.34Z" transform="translate(-331.99 -36.61)"/><path class="cls-2" d="M421.84,77.93c-2.83-3.84-9.24,2.4-9.24,2.4s-4,4.66.66,10.28c2.32,2.81,5,.69,6.78-2.66S423.86,80.66,421.84,77.93Z" transform="translate(-331.99 -36.61)"/><path class="cls-17" d="M417.77,88.34a2.66,2.66,0,0,1-2.35,1,1,1,0,0,1-.66-1c.27-.83,2.92-2.31,2.26-4.64s2.31-4.58,3.24-3.29C421,81.39,420.11,86,417.77,88.34Z" transform="translate(-331.99 -36.61)"/><path class="cls-2" d="M417.61,59.75c-.56-3.13-2.7-5.78-5.41-8a24.68,24.68,0,0,0-30.91,0c-2.72,2.17-4.86,4.82-5.42,8,0,0-1.33,24.64,4.82,34.09,4.76,7.32,10.75,11.29,16.05,11.29s11.3-4,16.06-11.29C418.94,84.39,417.61,59.75,417.61,59.75Z" transform="translate(-331.99 -36.61)"/><path class="cls-18" d="M378,79.55c-.68-10.78.48-18.79,1.1-19.74a24.12,24.12,0,0,0,7.16-9.52s8.86,4.3,22.88,2.58c0,0,2.61,3.68,5,7.45,1.14,1.83,1.64,12.36,1.32,19.2a3.34,3.34,0,0,0,1.07,2.64l.46.42c1.73-3.5,3.45-18.24,2.57-23.11-2.47-13.74-12.4-15.19-22.29-15.19A28.22,28.22,0,0,0,385.31,47c-.76-.22-1.91-.49-1.89-.64-5.29.35-8,7.87-9.56,13.11s.84,19.61,2.57,23.11h0A3.32,3.32,0,0,0,378,79.55Z" transform="translate(-331.99 -36.61)"/><path class="cls-19" d="M383.7,51.83c.5.22,1,.45,1.47.68a24.07,24.07,0,0,0,1.07-2.22s8.86,4.3,22.88,2.58c0,0,2.22,3.12,4.41,6.57a19.81,19.81,0,0,0,5.39-2.54c-3.19-11.35-12.46-12.62-21.7-12.62A28.22,28.22,0,0,0,385.31,47c-.76-.22-1.91-.49-1.89-.64a6.46,6.46,0,0,0-4.15,2.06l.05.06A11.36,11.36,0,0,0,383.7,51.83Z" transform="translate(-331.99 -36.61)"/><path class="cls-18" d="M420,43.72c0,4.83-7.92,2.8-18.28-3-10.15-5.72-15.19-.75-17.24,2.54a20.87,20.87,0,0,1,2.37-6.6c-5.26,2.48-4.9,6.76-4.2,9.13a7.81,7.81,0,0,0-6.86,1.47s5.36-.84,7.34.86c.25.22,1.08.6,1.18.69,5.55,6.11,11,9.08,22.47,8.25,6.32-.45,8.42-1.19,11.42-4.4C421.72,48.8,420,43.72,420,43.72Z" transform="translate(-331.99 -36.61)"/><path class="cls-20" d="M406.74,57c5.95-.43,8.16-1.11,10.91-3.87a16.54,16.54,0,0,1-11.86-4.22c-.11,1.58.68,3.68,2.78,6.1a28.46,28.46,0,0,1-13.73-5.78c.84,1.68,1.7,4.46,2.54,5.31-2.61,0-9.55-3-11.11-3.74C391.22,55.52,396.67,57.74,406.74,57Z" transform="translate(-331.99 -36.61)"/><path class="cls-21" d="M396,88.31a5,5,0,0,1-1.83-.34,2.48,2.48,0,0,1-1.72-1.78c-.18-1.08,3.22-16,3.2-16a.43.43,0,0,1,.85-.16c.05.27-3.32,15.34-3.2,16.05a1.7,1.7,0,0,0,1.19,1.13,3.36,3.36,0,0,0,3-.11.43.43,0,0,1,.52.69A3.29,3.29,0,0,1,396,88.31Z" transform="translate(-331.99 -36.61)"/><path class="cls-22" d="M402.31,62.22s6,.79,7.31,1.66,3.89,3.9,3.52,4.78-4.71-2.19-5.31-2.19-6.29-.79-6.58-1.67S401.31,62,402.31,62.22Z" transform="translate(-331.99 -36.61)"/><path class="cls-22" d="M390.25,62.38s-6,.61-7.35,1.45-4,3.77-3.62,4.67,4.77-2.06,5.37-2,6.31-.62,6.62-1.49S391.25,62.22,390.25,62.38Z" transform="translate(-331.99 -36.61)"/><ellipse class="cls-23" cx="76.12" cy="47.25" rx="4.94" ry="3.64"/><path class="cls-24" d="M380.34,83.86c0,2,2.21,3.64,4.94,3.64s4.94-1.63,4.94-3.64-2.21-3.64-4.94-3.64S380.34,81.85,380.34,83.86Z" transform="translate(-331.99 -36.61)"/><path class="cls-19" d="M377.8,71.33a14.17,14.17,0,0,1-4-.75c.59,5.07,1.72,10.11,2.66,12h0a3.32,3.32,0,0,0,1.53-3C377.79,76.55,377.75,73.8,377.8,71.33Z" transform="translate(-331.99 -36.61)"/><path class="cls-19" d="M415.45,71.54c.08,2.76.07,5.59,0,8a3.34,3.34,0,0,0,1.07,2.64l.46.42c1-2,1.94-7.49,2.44-12.82A12.17,12.17,0,0,1,415.45,71.54Z" transform="translate(-331.99 -36.61)"/><path class="cls-25" d="M387.24,88.57s10.39,3.71,17.23-1c0,0-.53,8.27-8.16,8.65C391.23,96.49,388.21,92.56,387.24,88.57Z" transform="translate(-331.99 -36.61)"/><path class="cls-26" d="M395.47,93.31a10.48,10.48,0,0,0-4.93.93,8.34,8.34,0,0,0,10.66.14A14.06,14.06,0,0,0,395.47,93.31Z" transform="translate(-331.99 -36.61)"/><path class="cls-27" d="M388.46,88.94c.13.5.32,1.14.44,1.49a.53.53,0,0,0,.31.34c6.62,2.56,11,1.26,13.27-.3a.5.5,0,0,0,.19-.24,15.33,15.33,0,0,0,.68-2C398,91.1,391.2,89.69,388.46,88.94Z" transform="translate(-331.99 -36.61)"/><path class="cls-27" d="M409,74.76a4.45,4.45,0,1,1-4.44-4.21A4.33,4.33,0,0,1,409,74.76Z" transform="translate(-331.99 -36.61)"/><path class="cls-28" d="M406.18,77.79a11.83,11.83,0,0,1-2.35.26,4.32,4.32,0,0,1-3.32-1.54,4.54,4.54,0,0,0,8.13-.12A5.44,5.44,0,0,1,406.18,77.79Z" transform="translate(-331.99 -36.61)"/><path class="cls-29" d="M407.15,75a2.61,2.61,0,1,1-2.6-2.57A2.58,2.58,0,0,1,407.15,75Z" transform="translate(-331.99 -36.61)"/><path class="cls-30" d="M406.13,75a1.58,1.58,0,1,1-1.58-1.56A1.57,1.57,0,0,1,406.13,75Z" transform="translate(-331.99 -36.61)"/><path class="cls-28" d="M401.63,73.49a9,9,0,0,1,3.17-.43A7.78,7.78,0,0,1,409,74.57c-.1-2.23-1-4.69-4.4-4.92s-4.22,2.56-4.45,4.68A3.7,3.7,0,0,1,401.63,73.49Z" transform="translate(-331.99 -36.61)"/><path class="cls-27" d="M382.8,74.76a4.45,4.45,0,1,0,4.44-4.21A4.33,4.33,0,0,0,382.8,74.76Z" transform="translate(-331.99 -36.61)"/><path class="cls-28" d="M385.61,77.79a11.75,11.75,0,0,0,2.35.26,4.32,4.32,0,0,0,3.32-1.54,4.55,4.55,0,0,1-8.14-.12A5.47,5.47,0,0,0,385.61,77.79Z" transform="translate(-331.99 -36.61)"/><path class="cls-29" d="M384.64,75a2.6,2.6,0,1,0,2.6-2.57A2.58,2.58,0,0,0,384.64,75Z" transform="translate(-331.99 -36.61)"/><path class="cls-30" d="M385.66,75a1.58,1.58,0,1,0,1.58-1.56A1.57,1.57,0,0,0,385.66,75Z" transform="translate(-331.99 -36.61)"/><path class="cls-28" d="M390.16,73.49a9,9,0,0,0-3.17-.43,7.75,7.75,0,0,0-4.18,1.51c.1-2.23,1-4.69,4.4-4.92s4.22,2.56,4.45,4.68A3.7,3.7,0,0,0,390.16,73.49Z" transform="translate(-331.99 -36.61)"/><path class="cls-27" d="M388.91,74.37a.51.51,0,1,1-.51-.52A.51.51,0,0,1,388.91,74.37Z" transform="translate(-331.99 -36.61)"/><path class="cls-27" d="M406,74.37a.51.51,0,1,1-.51-.52A.51.51,0,0,1,406,74.37Z" transform="translate(-331.99 -36.61)"/><path class="cls-31" d="M346.14,210.84l-6.29,29.85a4.2,4.2,0,0,0,2.74,4.88l54,17.54a4,4,0,0,0,5.19-3.17l7.52-39a4.18,4.18,0,0,0-3.39-5l-55.21-8.36A4.06,4.06,0,0,0,346.14,210.84Z" transform="translate(-331.99 -36.61)"/><path class="cls-32" d="M346,210.76l-6.13,29.08a4.09,4.09,0,0,0,2.67,4.76l52.61,17.1a4,4,0,0,0,5.06-3.1l7.33-38a4.07,4.07,0,0,0-3.3-4.83l-53.81-8.15A4,4,0,0,0,346,210.76Z" transform="translate(-331.99 -36.61)"/><path class="cls-33" d="M376.67,237c-3.91-3.35-6.14-8-8.68-12.36-2.81-4.83-5.64-9.89-6.9-15.38l-10.68-1.62a4,4,0,0,0-4.43,3.17l-6.13,29.08a4.09,4.09,0,0,0,2.67,4.76l52.61,17.1a4,4,0,0,0,5.06-3.1l4.16-21.6C396,241.06,384,243.25,376.67,237Z" transform="translate(-331.99 -36.61)"/><path class="cls-34" d="M388.07,254.39c-.19-2.75-.63-3.75-4.78-6.19-3.53-1.41-10.41-10.38-11.43-11.39a95.09,95.09,0,0,1-7.88-8.67c-2.09-2.64-3.68-6.22-6.06-8.57-6.24-6.17-7.28,6.56-7.22,10.57.06,3.73-.15,7.58.22,11.3a30.71,30.71,0,0,0,1.78,6.47l32.92,10.7C385.93,257.46,388.16,255.76,388.07,254.39Z" transform="translate(-331.99 -36.61)"/><path class="cls-35" d="M376.49,219.58a1.95,1.95,0,1,1-1.94-1.71A1.83,1.83,0,0,1,376.49,219.58Z" transform="translate(-331.99 -36.61)"/><path class="cls-36" d="M354.32,246.79s16.82-1.93,19.12-8.68C373.44,238.11,353.57,225.62,354.32,246.79Z" transform="translate(-331.99 -36.61)"/><path class="cls-2" d="M357.41,235.91a78.07,78.07,0,0,1-.15,12.21c-.33,2.55-.41,3.67,4.33,13.5a.93.93,0,0,0,1,.5,3.68,3.68,0,0,0,2.44-1.43s2.28,3.75,3.69,2.19c.66-.72,1.39-1.7,1.39-1.7s1.15,1.76,2.51,1.56c.91-.14,1.88-1.73,2.28-3.09,0,0,1.7,1.35,2.74,1,.55-.19,1.24-.87,2.46-2.78l-1.36-1.09s-2.26-.29-5.27-3.59c-1.36-1.49-1-3,.55-2.65,2,.47,1.48,1.73,4.47,3.92,2.63,1.93,6.33,2.12,7,.34,1-2.93-3.85-4.47-5.23-5.64-2.95-2.5-6.75-7.23-7.67-7.8-1.51-.94-7.21-2.78-7.32-5.93Z" transform="translate(-331.99 -36.61)"/><path class="cls-16" d="M357.18,248.77c3-6.11,7.39-8.15,14.77-7.74-2.06-1-6.59-2.78-6.69-5.59l-7.85.47a78.07,78.07,0,0,1-.15,12.21C357.23,248.35,357.21,248.56,357.18,248.77Z" transform="translate(-331.99 -36.61)"/><path class="cls-37" d="M374.68,260.34c.09-.22.17-.44.24-.65-.27-.64-3.64-5.08-4.68-6.47C370.12,253.48,373.17,258.59,374.68,260.34Z" transform="translate(-331.99 -36.61)"/><path class="cls-37" d="M369.7,261.76c.09-.22.38-.36.44-.58-.27-.64-3.85-5.15-4.88-6.54C365.13,254.9,368.19,260,369.7,261.76Z" transform="translate(-331.99 -36.61)"/><path class="cls-37" d="M364.66,261.18a1.28,1.28,0,0,0,.39-.46c-.25-.61-2.75-3.56-3.74-4.88C361.19,256.09,363.22,259.51,364.66,261.18Z" transform="translate(-331.99 -36.61)"/><path class="cls-38" d="M381.07,251.62c1.17-1.47,3.8.77,3.84.92,0,0,.14,1.57-1.85,2a3.28,3.28,0,0,1-1.63-1A1.42,1.42,0,0,1,381.07,251.62Z" transform="translate(-331.99 -36.61)"/><path class="cls-10" d="M350.57,119.29s-20.4,66.91-18.45,74.41,20.53,49.26,22.2,53.09c0,0,6.07-8.85,19.12-8.68,0,0-22.37-42.24-22.87-44.08s11.95-34.14,12.23-39.57S367,128.63,350.57,119.29Z" transform="translate(-331.99 -36.61)"/><g class="cls-14"><path class="cls-15" d="M356.45,162.91c-7.3,18-5.93,26.55-6.34,30.6l.46.16c.45-3.94,12-34,12.23-39.21.1-1.91.64-5.67.59-10.14C362.28,147,357.86,159.44,356.45,162.91Z" transform="translate(-331.99 -36.61)"/></g><path class="cls-36" d="M455.56,177.29s4.31-8.54,11.94-5,8.5,9.75,1.55,14.43S451.13,183.6,455.56,177.29Z" transform="translate(-331.99 -36.61)"/><path class="cls-39" d="M452.33,181.87l10.4-7.73,10.72,5.38a30.42,30.42,0,0,1-13.1,9.09C452.29,191.24,450.13,183.62,452.33,181.87Z" transform="translate(-331.99 -36.61)"/><path class="cls-10" d="M442.43,121.17c1.24,2.51,3.06,7.93,5.06,19.63,3,17.38,1.21,36.61,1.21,36.61l11.39-3.85s-7.08,5-.49,10.16c6.35,4.93,13.51,2.49,14.16-5.15,0,0,.95,7-2.8,9.26-6.46,3.89-31.47,16.19-33.47,15.77-5.29-1.09-8.49-26.37-3-58.31C435.93,136.88,441.39,119.06,442.43,121.17Z" transform="translate(-331.99 -36.61)"/><g class="cls-14"><path class="cls-15" d="M436.84,187.54c2.09,7.38,15.92-.9,15.92-.9a17.56,17.56,0,0,1,5.42-4.25,10.28,10.28,0,0,0,1.42,1.33c6.35,4.93,13.51,2.49,14.16-5.15,0,0,.95,7-2.8,9.26-6.46,3.89-31.47,16.19-33.47,15.77-4.42-.91-8.08-20-4.29-49.73C434.41,162.31,434.54,179.43,436.84,187.54Z" transform="translate(-331.99 -36.61)"/></g><path class="cls-2" d="M466,169.26s-9.51,7.25-8,9.69,6.73,5.82,12,4.3c4.19-1.22,9.06-14.14,8.93-15.36-.27-2.54-5.24-6-5.65-6.09S466,169.26,466,169.26Z" transform="translate(-331.99 -36.61)"/><polygon class="cls-40" points="124.19 104.09 104.85 157.42 106.34 158.31 126.73 153.87 154.21 97.93 152.38 97.26 124.19 104.09"/><polygon class="cls-41" points="125.69 104.97 106.34 158.31 128.23 154.76 154.21 97.93 125.69 104.97"/><path class="cls-42" d="M469.34,164.75a19,19,0,0,1-20.25.51l-10.76,29.66,21.89-3.55,14-30.67A29.29,29.29,0,0,1,469.34,164.75Z" transform="translate(-331.99 -36.61)"/><path class="cls-43" d="M451.53,172.93a2.36,2.36,0,0,1-.91-2c.2-1.73,1.29-1.86,1.29-1.86a3.37,3.37,0,0,1-.26-2.24,2.61,2.61,0,0,1,2.71-1.77c-1.18-1.14-.26-4.21,2-4.51,4.86-.63,12.26-.66,15.21,1.45a6.1,6.1,0,0,0,2.23.55c-6.11,4-13.69,9.11-21.09,14.3C450.84,176.77,450.32,173.85,451.53,172.93Z" transform="translate(-331.99 -36.61)"/><path class="cls-2" d="M468.64,171.33a5.92,5.92,0,0,0-2.67-1,17.64,17.64,0,0,1-4.39-.88c-.7-.52-8.65,1.4-8.71-2.39a1.17,1.17,0,0,1,.79-1.1c1.23-.46,4.25-1.2,10.28-.79,8.43.59,7.39,1,7.95,1.21s5.42,3.85,5,4.64S476.22,176.57,468.64,171.33Z" transform="translate(-331.99 -36.61)"/><path class="cls-38" d="M456.12,165.85a1.9,1.9,0,0,1,.36,2.67c-.11.18-3,.41-3.14-1.44C453.27,166.16,456.12,165.85,456.12,165.85Z" transform="translate(-331.99 -36.61)"/><path class="cls-2" d="M465.27,174.11s-3.63-1.16-4.53-1.27-9.47.7-8.81-2.72a.94.94,0,0,1,.64-.72,23.39,23.39,0,0,1,10.89-.5c6.56,1.22,10.15,3.15,10.23,4.44S473.77,179.36,465.27,174.11Z" transform="translate(-331.99 -36.61)"/><path class="cls-38" d="M454.6,169.37a.63.63,0,0,1,.58.19,1.79,1.79,0,0,1,.11,2.18c-.09.18-2.82.41-2.83-1.37C452.45,169.81,453.93,169.49,454.6,169.37Z" transform="translate(-331.99 -36.61)"/><path class="cls-2" d="M463.08,177.86a4.1,4.1,0,0,0-1.15-.47c-1.18-.27-3.67-.83-4.09-.9s-4.7.14-5.54-2.1a.94.94,0,0,1,.65-1.24,22.26,22.26,0,0,1,8.31-.21,37,37,0,0,1,5.2,1.46c1,.55,4.56,2.11,4.32,3S470.3,182.23,463.08,177.86Z" transform="translate(-331.99 -36.61)"/><path class="cls-38" d="M455.35,173.38a1.81,1.81,0,0,1-.13,2.1c-.13.14-2.91-.42-2.29-1.82C453.06,173.37,455.35,173.38,455.35,173.38Z" transform="translate(-331.99 -36.61)"/><path class="cls-2" d="M472.17,167.32a6.69,6.69,0,0,0-2.32-1.37c-1.5-.36-4.35-1-5.24-1.31-1.14-.32-10.18,1.88-9.59-2a1.43,1.43,0,0,1,1.07-1.2,38,38,0,0,1,16.31-.08,3.81,3.81,0,0,1,1.56.74c1.6,1.26,5.3,4.37,4.94,5.81-.45,1.83-1.43,3.69-2.86,2.48C475,169.48,473.65,168.54,472.17,167.32Z" transform="translate(-331.99 -36.61)"/><path class="cls-38" d="M458.24,161.27s1.9.73.77,3c-.11.22-3.6.49-3.62-1.6C455.38,161.65,458.24,161.27,458.24,161.27Z" transform="translate(-331.99 -36.61)"/><path class="cls-7" d="M400,174.33a1.64,1.64,0,1,0,1.65-1.62A1.64,1.64,0,0,0,400,174.33Z" transform="translate(-331.99 -36.61)"/><path class="cls-7" d="M399.88,185.11a1.63,1.63,0,1,0,1.65-1.61A1.62,1.62,0,0,0,399.88,185.11Z" transform="translate(-331.99 -36.61)"/><path class="cls-7" d="M399.78,195.9a1.63,1.63,0,1,0,1.64-1.62A1.63,1.63,0,0,0,399.78,195.9Z" transform="translate(-331.99 -36.61)"/><path class="cls-7" d="M399.67,206.68a1.64,1.64,0,1,0,1.65-1.61A1.64,1.64,0,0,0,399.67,206.68Z" transform="translate(-331.99 -36.61)"/></g></g></svg>